<?xml version="1.0" encoding="UTF-8"?>
<svg version="1.1" xmlns="http://www.w3.org/2000/svg" width="229" height="201">
<path d="M0 0 C75.57 0 151.14 0 229 0 C229 66.33 229 132.66 229 201 C153.43 201 77.86 201 0 201 C0 134.67 0 68.34 0 0 Z " fill="#0A0B0A" transform="translate(0,0)"/>
<path d="M0 0 C24.42 0 48.84 0 74 0 C74 5.28 74 10.56 74 16 C57.17 16 40.34 16 23 16 C23 19.63 23 23.26 23 27 C38.84 27 54.68 27 71 27 C71 32.61 71 38.22 71 44 C55.49 44 39.98 44 24 44 C24 54.56 24 65.12 24 76 C16.08 76 8.16 76 0 76 C0 50.92 0 25.84 0 0 Z " fill="#E5E5E5" transform="translate(92,54)"/>
<path d="M0 0 C7.59 0 15.18 0 23 0 C23.06905317 7.3835743 23.12873495 14.76601771 23.16479492 22.1496582 C23.17983529 24.65881152 23.20027272 27.16793874 23.22631836 29.67700195 C23.26291014 33.29384825 23.27977448 36.91034542 23.29296875 40.52734375 C23.30845261 41.64020248 23.32393646 42.75306122 23.33988953 43.89964294 C23.34217508 54.59565786 21.18511212 61.92487382 13.73828125 69.76171875 C3.0031617 78.53664529 -11.77130542 78.88769144 -25 78 C-32.0640075 76.94404012 -37.58065081 75.2096746 -44 72 C-44 64.41 -44 56.82 -44 49 C-39.71 49 -35.42 49 -31 49 C-29.58398438 52.07617188 -29.58398438 52.07617188 -28.16796875 55.15234375 C-27.06399866 57.33029489 -27.06399866 57.33029489 -24 58 C-21.35889523 58.17398206 -18.76752888 58.27679015 -16.125 58.3125 C-15.41730469 58.34150391 -14.70960937 58.37050781 -13.98046875 58.40039062 C-10.52147133 58.44225931 -8.18892803 58.09958401 -5.1171875 56.48046875 C-0.15620154 50.6682435 -0.67297492 42.42671979 -0.5859375 35.15625 C-0.56657135 34.14655151 -0.5472052 33.13685303 -0.5272522 32.09655762 C-0.46786773 28.89778879 -0.42123643 25.69898316 -0.375 22.5 C-0.33678233 20.32029752 -0.29772844 18.14060954 -0.2578125 15.9609375 C-0.16063928 10.64070395 -0.08074407 5.32060928 0 0 Z " fill="#DCDCDC" transform="translate(56,54)"/>
<path d="M0 0 C19.8 0 39.6 0 60 0 C60 4.29 60 8.58 60 13 C40.2 13 20.4 13 0 13 C0 8.71 0 4.42 0 0 Z " fill="#C0C0C0" transform="translate(159,139)"/>
<path d="M0 0 C6.27 0 12.54 0 19 0 C19 0.33 19 0.66 19 1 C21.64 1.33 24.28 1.66 27 2 C27 2.33 27 2.66 27 3 C19.41 3 11.82 3 4 3 C4 18.18 4 33.36 4 49 C3.67 49 3.34 49 3 49 C2.505 28.21 2.505 28.21 2 7 C1.01 8.485 1.01 8.485 0 10 C-0.66 9.67 -1.32 9.34 -2 9 C-1.34 7.02 -0.68 5.04 0 3 C-0.66 2.67 -1.32 2.34 -2 2 C-1.34 2 -0.68 2 0 2 C0 1.34 0 0.68 0 0 Z " fill="#3C3C3C" transform="translate(52,51)"/>
<path d="M0 0 C19.14 0 38.28 0 58 0 C58 0.33 58 0.66 58 1 C44.8 1.33 31.6 1.66 18 2 C17.67 2.66 17.34 3.32 17 4 C16.67 3.34 16.34 2.68 16 2 C13.28553021 1.68758545 10.66090639 1.48663408 7.9375 1.375 C6.79958008 1.31699219 6.79958008 1.31699219 5.63867188 1.2578125 C3.75952805 1.16326438 1.87979664 1.08053244 0 1 C0 0.67 0 0.34 0 0 Z " fill="#D7D8D8" transform="translate(160,140)"/>
<path d="M0 0 C1.32 0 2.64 0 4 0 C4.33 1.32 4.66 2.64 5 4 C-2.26 4 -9.52 4 -17 4 C-17 3.67 -17 3.34 -17 3 C-11.39 3 -5.78 3 0 3 C0 2.01 0 1.02 0 0 Z " fill="#E0E0E0" transform="translate(161,66)"/>
<path d="M0 0 C3 1 3 1 5 4 C4.67 4.66 4.34 5.32 4 6 C5.32 6 6.64 6 8 6 C8 6.66 8 7.32 8 8 C4.62537285 7.45276317 2.91765 6.9451 0 5 C-0.1875 2.375 -0.1875 2.375 0 0 Z " fill="#C0C1C1" transform="translate(13,121)"/>
<path d="M0 0 C0.33 0 0.66 0 1 0 C1.3690205 10.55808656 1.3690205 10.55808656 -1 15 C-1.66 15 -2.32 15 -3 15 C-2.67 12.69 -2.34 10.38 -2 8 C-1.34 8 -0.68 8 0 8 C0 5.36 0 2.72 0 0 Z " fill="#141414" transform="translate(81,94)"/>
<path d="M0 0 C0.66 0.33 1.32 0.66 2 1 C4.37123246 1.23029956 6.74741943 1.41119942 9.125 1.5625 C10.40632813 1.64628906 11.68765625 1.73007813 13.0078125 1.81640625 C14.48894531 1.90728516 14.48894531 1.90728516 16 2 C16 2.33 16 2.66 16 3 C13.75135275 3.22245975 11.50097377 3.42746557 9.25 3.625 C7.37054688 3.79902344 7.37054688 3.79902344 5.453125 3.9765625 C2.16413097 3.99888599 0.68979224 3.77961002 -2 2 C-1.34 1.34 -0.68 0.68 0 0 Z " fill="#1C1C1C" transform="translate(30,109)"/>
<path d="M0 0 C2.475 0.99 2.475 0.99 5 2 C4.01 2.99 3.02 3.98 2 5 C1.67 4.34 1.34 3.68 1 3 C-0.32 3.33 -1.64 3.66 -3 4 C-2.67 3.34 -2.34 2.68 -2 2 C-1.34 2 -0.68 2 0 2 C0 1.34 0 0.68 0 0 Z " fill="#CCCCCC" transform="translate(63,122)"/>
</svg>
